<?xml version="1.0" encoding="UTF-8"?>
<svg id="Layer_2" data-name="Layer 2" xmlns="http://www.w3.org/2000/svg" viewBox="0 0 339.36 57.64">
  <defs>
    <style>
      .cls-1 {
        fill: #fff;
      }
    </style>
  </defs>
  <g id="Layer_1-2" data-name="Layer 1">
    <g>
      <path class="cls-1" d="m47.97,50.04c-.31-.17-.46-.42-.57-.69-.48-1.18-.95-2.36-1.12-3.63-.04-.33-.08-.66-.07-1,.02-1.48-.07-2.96.1-4.43.02-.17.02-.33.02-.5,0-.23.07-.5-.17-.63-.22-.12-.38.1-.55.21-1.6,1.07-3.33,1.24-5.14.72-.99-.28-1.68-.98-2.29-1.76-.39-.5-.67-1.06-.91-1.63-1.03-2.41-1.71-4.91-1.97-7.53-.08-.85-.29-1.68-.61-2.48-.47-1.16-.35-1.5.71-2.17.09-.06.18-.1.27-.16.12-.08.27-.16.19-.34-.07-.17-.25-.14-.39-.12-.49.07-.98.21-1.48.24-1.83.14-3.65.33-5.48.44-1.14.07-2.29,0-3.44.03-1.88.05-3.74-.18-5.61-.31-1.54-.11-3.07-.27-4.59-.54-3.43-.61-6.8-1.47-10.05-2.75-1.2-.47-2.38-.99-3.57-1.5-.4-.17-.77-.42-1.09-.72-.1-.1-.24-.21-.17-.37.08-.19.25-.1.38-.07.24.06.5.11.72.21,1.3.63,2.71.94,4.09,1.36,3.13.94,6.32,1.67,9.57,2.1,1.57.21,3.13.43,4.72.44.85,0,1.7.12,2.55.21,1.27.13,2.54.09,3.81,0,.81-.05,1.62-.17,2.43-.19,2.48-.07,4.94-.33,7.4-.67,2.64-.36,5.27-.76,7.9-1.23,4.56-.82,9.04-1.96,13.46-3.31,4.62-1.42,9.14-3.15,13.51-5.23,1.92-.91,3.83-1.83,5.62-3,.26-.17.53-.34.74-.57.08-.09.16-.2.09-.34-.07-.13-.2-.13-.33-.12-.16.02-.33.04-.49.09-4.34,1.18-8.77,2.01-13.15,3.04-1.6.37-1.68.44-2.17,2.02-.1.34-.18.69-.31,1.01-.22.55-.49.63-1.02.35-.34-.18-.57-.49-.82-.76-.32-.34-.67-.37-1.08-.22-.19.07-.3.22-.41.37-.44.65-1.08,1.1-1.66,1.59-.45.37-1.01.48-1.57.57-.33.05-.63-.14-.77-.51-.18-.48-.33-.98-.48-1.48-.07-.22-.05-.45.02-.68.05-.19.05-.37-.09-.53-.14-.16-.31-.3-.54-.27-.2.03-.22.23-.27.38-.48,1.5-1.13,2.91-2.03,4.21-.27.39-.6.68-1.01.91-.33.18-.64.22-1.01.07-1.24-.49-2.18-1.77-2.23-3.11,0-.24.05-.45.17-.66.08-.14.17-.28.25-.43.07-.14.2-.3.09-.46-.13-.21-.33-.11-.51-.06-1.77.47-3.56.86-5.38,1.09-.23.03-.46.05-.68.05-1.71,0-3.42,0-5.12,0-.42,0-.83-.07-1.24-.12-.16-.02-.33-.08-.48-.14-.15-.07-.36-.13-.36-.31,0-.23.25-.26.43-.29.97-.13,1.95-.22,2.9-.42.86-.18,1.74-.17,2.61-.21,1.95-.09,3.84-.47,5.71-1.01.58-.17,1.14-.4,1.7-.63.44-.19.49-.37.2-.75-.19-.25-.42-.47-.64-.69-.38-.38-.74-.79-1.05-1.24-.56-.81-.48-1.31.27-1.95,1.34-1.15,2.89-1.9,4.56-2.41,2.24-.69,4.53-1.1,6.89-1.01.55.02,1.07.14,1.57.36.3.13.53.34.54.7.01.35-.23.53-.5.65-.41.19-.66.56-.95.88-.22.24-.24.53-.05.8.1.14.18.3.31.39.98.68,1.79,1.55,2.77,2.24.44.31.88.44,1.4.38.79-.08,1.56-.29,2.32-.5,2.51-.71,5.04-1.28,7.61-1.74,1.97-.35,3.91-.81,5.87-1.21.84-.17,1.69-.26,2.54-.09.25.05.49.12.68.3.44.42.49.96.08,1.45-.47.56-1,1.06-1.58,1.51-1.78,1.42-3.69,2.64-5.76,3.61-2.43,1.14-4.82,2.38-7.31,3.4-3.68,1.52-7.4,2.92-11.28,3.86-.28.07-.56.15-.84.24-.45.15-.52.26-.41.74.04.18.11.36.15.54.17.7,0,1.27-.6,1.71-.55.41-1.08.85-1.58,1.33-.37.35-.56.75-.53,1.27.03.5.05,1,.08,1.5.06.94-.11,1.87-.4,2.76-.4,1.23-.85,2.44-1.25,3.67-.88,2.7-1.2,5.48-1.19,8.31.01,2.38.11,4.74.45,7.1.02.12.06.24-.07.42Zm2.49-44.67c.19,0,.37.05.54.13,1.13.56,2.36.9,3.42,1.6.2.13.4.03.36-.22-.08-.56.32-.82.65-1.11.15-.13.37-.19.54-.3.2-.12.55-.17.48-.48-.07-.3-.4-.32-.67-.35-.02,0-.04,0-.06,0-1.16-.03-2.32-.08-3.48-.1-.37,0-.74.05-1.11.11-.45.07-.61.26-.68.73-1.12-.21-2.01.29-2.83.96-.24.2-.22.32.08.44.44.17.9.32,1.36.43.63.15,1.02-.1,1.25-.72.13-.36.13-.73.15-1.1Zm-4.09,9.74c0,.08,0,.17.03.25.28.7.62,1.36,1.09,1.95.23.29.55.32.91.19.41-.15.71-.43.94-.79.43-.69.85-1.38,1.26-2.08.07-.12.13-.26.17-.4.12-.41.06-.6-.3-.84-.26-.18-.51-.36-.79-.5-.65-.33-1-.28-1.52.23-.49.48-.96.98-1.5,1.41-.19.15-.31.34-.29.59Zm8.69-2.23s0,.01,0,.02c-.44,0-.87,0-1.31,0-.21,0-.4.09-.35.33.12.65.25,1.31.63,1.88.14.22.3.17.47.05.36-.25.69-.54.97-.88.58-.68,1.3-1.06,2.15-1.29.54-.15.98-.08,1.39.26.21.17.44.23.7.21.16-.01.27-.08.33-.23.25-.65-.13-1.22-.83-1.23-.73-.02-1.39.24-2.02.57-.46.24-.93.34-1.44.32-.23,0-.46,0-.69,0Zm1.26-3c-.02-.44-.08-.89-.49-1.15-.42-.26-.87-.49-1.31-.71-.13-.07-.28-.11-.41,0-.15.13-.13.3-.05.46.2.41.27.87.52,1.27.13.2.27.5.01.68-.28.19-.44-.09-.58-.3-.01-.02-.02-.03-.03-.05-.16-.27-.41-.34-.7-.28-.24.06-.42.23-.44.47-.02.27.24.37.42.49.81.54,1.63.32,2.45.04.43-.15.62-.46.61-.91Zm-9.75-2.09c-.32-.02-.62.04-.89.22-.31.21-.34.39-.08.66.48.49,1.04.89,1.58,1.31.2.15.44.17.65.05.46-.25.85-.6,1.09-1.08.11-.22.09-.4-.15-.52-.7-.34-1.42-.61-2.2-.64Zm4.01,3.88c-.23-.02-.34.12-.36.37-.02.3.17.57.42.59.22.02.47-.17.47-.38,0-.33-.2-.57-.54-.59Z"/>
      <path class="cls-1" d="m146.65,21.47c.85,0,1.71,0,2.56,0,.55,0,1.08.08,1.59.28.45.17.92.25,1.4.32,3.48.55,6.4,2.08,8.54,4.93.89,1.19,1.47,2.58,1.82,4.02,1.28,5.2.71,10.23-1.74,14.99-1.45,2.81-3.58,5.06-6.38,6.61-1.1.61-2.23,1.12-3.47,1.37-.82.16-1.62.38-2.44.52-1.46.25-2.91.1-4.34-.19-1.04-.22-2.08-.41-3.12-.62-.51-.1-1.04-.04-1.56-.07-1.07-.06-1.15-.13-1.07-1.19.2-2.68.21-5.37.48-8.04,0-.06,0-.12,0-.19.03-3.48.3-6.95.12-10.43-.06-1.14-.08-2.29-.09-3.43-.02-1.65.07-3.29.2-4.93.09-1.19-.42-1.76-1.61-1.78-.58,0-1.17,0-1.75,0-.36,0-.71-.05-1.05-.11-.32-.06-.36-.21-.18-.49.13-.2.29-.36.52-.42.22-.06.45-.12.67-.12.55,0,1.07-.1,1.59-.26.22-.07.45-.11.68-.11,1.63,0,3.24-.15,4.83-.5,1.25-.28,2.53-.12,3.8-.14Zm-.52,2.16h0c-.87,0-1.75,0-2.62,0-.46,0-.54.08-.65.51-.08.32-.12.65-.11.99.03.87.07,1.75.08,2.62.02,1.73-.16,3.45-.2,5.18-.05,2.44-.19,4.87-.16,7.31,0,.33-.02.67-.04,1-.07,1.31-.15,2.62-.2,3.93-.07,1.96-.12,3.91-.34,5.86-.08.73.1,1,.81,1.16.71.16,1.42.3,2.16.29,1.08-.01,2.17.02,3.25,0,2.35-.06,4.45-.89,6.3-2.29,1.83-1.38,3-3.27,3.75-5.42.61-1.74.93-3.54,1.06-5.38.17-2.49.14-4.96-.45-7.39-.99-4.13-3.51-6.81-7.64-7.92-1.29-.35-2.61-.55-3.95-.47-.35.02-.71,0-1.06,0Z"/>
      <path class="cls-1" d="m116.6,35.2c-.05,2.49-.04,4.74-.16,6.98-.14,2.74-.22,5.49-.31,8.24-.01.42,0,.83-.02,1.25-.02.77-.37,1.3-1.11,1.56-.47.17-.96.27-1.46.33-.73.09-.95-.09-.96-.83-.01-.62-.01-1.25.02-1.87.06-1.39.13-2.79.23-4.18.15-2,.03-4,.14-5.99.09-1.64.09-3.29.16-4.93.04-.89-.06-1.79-.12-2.68-.11-1.75-.09-3.49,0-5.24.05-.96.07-1.91.07-2.87,0-.83-.42-1.26-1.26-1.31-.66-.04-1.33-.02-2-.02-.36,0-.71-.04-1.05-.11-.32-.07-.37-.22-.2-.5.12-.21.29-.35.52-.42.28-.07.57-.14.86-.13.36,0,.71-.05,1.05-.14,1-.25,2.02-.28,3.04-.27.69,0,1.37-.06,2.03-.28.68-.22,1.38-.33,2.09-.32,1.42,0,2.83,0,4.25,0,.23,0,.47,0,.68.06.9.27,1.83.42,2.71.73,1.89.65,3.35,1.85,4.12,3.75.47,1.15.53,2.36.39,3.57-.43,3.63-2.48,6.08-5.72,7.62-.71.34-1.47.59-2.2.88-.54.22-.56.27-.28.76,1.9,3.36,3.92,6.63,6.25,9.71.69.92,1.46,1.76,2.28,2.57,1.27,1.26,2.78,1.58,4.49,1.27.33-.06.65-.15.99-.04.38.12.45.33.22.66-.18.27-.45.43-.75.54-.43.16-.87.29-1.32.39-.47.11-.94.2-1.39.36-1.63.61-3.02.12-4.31-.87-.82-.63-1.48-1.41-2.13-2.19-2.36-2.8-4.25-5.91-6.09-9.06-.72-1.22-1.34-2.49-2.17-3.65-.04-.05-.07-.1-.1-.16-.33-.62-.17-.9.51-.91,1.61-.03,3.14-.39,4.56-1.13,2.14-1.1,3.27-2.9,3.43-5.29.07-1.04.08-2.08-.15-3.11-.42-1.95-1.52-3.27-3.45-3.91-.84-.28-1.68-.43-2.57-.4-.92.03-1.83,0-2.75.01-.57,0-.63.06-.72.63-.03.18-.05.37-.05.56-.06,2.08-.12,4.16-.16,6.24-.03,1.46-.15,2.91-.12,4.13Z"/>
      <path class="cls-1" d="m96.17,21.46c1.09,0,1.13.02,1.35,1.1.37,1.82.63,3.65.97,5.47.99,5.17,1.91,10.36,3.16,15.48.47,1.92.96,3.84,1.7,5.68.44,1.09,1.11,1.99,1.99,2.76.41.36.87.53,1.42.52.77,0,1.54-.06,2.31-.13.23-.02.56-.12.66.18.08.24-.19.39-.37.53-.19.16-.4.31-.63.4-1.19.46-2.4.85-3.65,1.08-1.5.28-2.7-.26-3.57-1.51-.73-1.05-1.26-2.2-1.66-3.42-.87-2.68-1.49-5.42-2.18-8.14-.14-.54-.17-.57-.72-.5-.68.09-1.37.05-2.06.04-.99-.02-1.95.1-2.91.33-1.2.29-2.43.29-3.66.29-1.07,0-1.04-.24-1.52,1.04-.59,1.58-1.12,3.18-1.68,4.77-.62,1.77-1.26,3.53-1.88,5.3-.12.34-.27.66-.48.94-.38.51-.88.84-1.51.9-.5.05-1,.04-1.5.02-.39-.02-.49-.16-.36-.53.2-.55.44-1.08.68-1.61,1.48-3.24,2.98-6.47,4.37-9.75.29-.69.54-1.4.62-2.15.05-.45.23-.83.61-1.11.38-.28.59-.7.78-1.12.66-1.49,1.31-2.97,1.95-4.47,1.61-3.71,3.39-7.33,5.27-10.91.02-.04.04-.07.06-.11.67-1.15,1.1-1.4,2.41-1.4Zm-3.54,18c1.23,0,2.46,0,3.69,0,.93,0,.97-.06.79-.95-.36-1.69-.72-3.38-1.05-5.08-.48-2.49-.94-4.99-1.48-7.47-.01-.06-.02-.12-.03-.18-.03-.1-.07-.21-.19-.22-.14-.01-.16.12-.18.21-.13.58-.44,1.08-.7,1.6-.51,1.02-1.04,2.04-1.48,3.1-.84,2.02-1.71,4.02-2.67,5.99-.39.8-.74,1.63-1.09,2.46-.18.42-.1.53.34.55.12,0,.25,0,.37,0,1.23,0,2.46,0,3.69,0Z"/>
      <path class="cls-1" d="m200.12,25.83c.1,1.09-.19,2.34-.27,3.61,0,.1-.04.2-.08.3-.11.24-.26.45-.55.44-.32,0-.42-.26-.46-.51-.08-.51-.16-1.03-.17-1.55,0-1.06-.44-1.95-1.1-2.73-.97-1.15-2.15-2-3.64-2.41-.85-.23-1.7-.41-2.58-.36-.35.02-.71.01-1.06,0-2.8-.1-4.98,1.13-6.78,3.16-1.68,1.9-2.53,4.19-3.07,6.61-.39,1.77-.6,3.58-.58,5.39.05,3.25.55,6.44,2.13,9.35,1.23,2.26,3.02,3.96,5.46,4.92.72.28,1.47.45,2.25.44.87-.02,1.75.06,2.62-.1,1.74-.32,3.24-1.17,4.71-2.1.76-.48,1.43-1.08,2.11-1.65.08-.07.15-.14.24-.2.2-.13.39-.4.65-.21.23.17.24.47.18.75-.07.29-.24.54-.45.74-2.06,1.99-4.29,3.7-7.17,4.34-1.04.23-2.05.57-3.13.56-1.8-.01-3.49-.49-5.15-1.16-2.96-1.19-4.92-3.43-6.38-6.16-1.22-2.3-1.82-4.77-1.95-7.36-.17-3.28.39-6.44,1.65-9.46,1.22-2.94,3.08-5.42,5.66-7.32,1.22-.9,2.59-1.52,4.03-1.95,1.66-.49,3.34-.91,5.1-.75.37.03.75.04,1.12.12,1.57.34,3.14.64,4.6,1.35.57.28,1.08.63,1.55,1.04.33.29.51.64.5,1.09-.01.52,0,1.04,0,1.75Z"/>
      <path class="cls-1" d="m306.81,45.53c.35-.3.46-.65.58-.97.23-.58.43-1.17.64-1.76.85-2.37,2.03-4.56,3.63-6.51,1.02-1.24,2.32-2.09,3.8-2.65,1.23-.46,2.31,0,3.24.78,1.04.87,1.47,2.09,1.66,3.4.19,1.29.03,2.58-.08,3.86-.24,2.65-.6,5.3-.53,7.97.01.46.04.92.11,1.37.17,1.1.75,1.47,1.61,1.45.82-.02,1.62-.03,2.39-.34.41-.17.84-.23,1.21.11-.03.18-.16.22-.26.28-1.64.84-3.31,1.57-5.13,1.93-.14.03-.29.05-.43.07-.82.11-1.41-.25-1.82-.94-.36-.6-.52-1.27-.6-1.96-.26-2.02-.18-4.03.04-6.04.24-2.09.44-4.18.44-6.29,0-.69-.18-1.31-.55-1.89-.58-.91-1.27-1.15-2.3-.77-1.03.38-1.82,1.08-2.53,1.89-.68.77-1.21,1.63-1.7,2.54-1.55,2.89-2.57,5.95-3.17,9.17-.08.45-.14.9-.21,1.36-.06.41-.14.82-.3,1.21-.2.49-.56.77-1.09.81-.35.02-.71.03-1.06.01-.54-.03-.74-.22-.68-.74.07-.66.08-1.33.13-1.99.12-1.87.28-3.73.34-5.61.07-2.25.16-4.49.23-6.74.02-.67.02-1.33-.12-1.99-.04-.18-.09-.36-.15-.54-.08-.25-.25-.38-.51-.37-.97.02-1.96-.15-2.9.27-.08.03-.16.05-.24.06-.33.04-.51-.19-.39-.51.1-.25.31-.38.53-.51.55-.31,1.14-.52,1.75-.66.73-.18,1.45-.37,2.17-.58.5-.15,1.01-.25,1.54-.14.82.18,1.3.65,1.38,1.48.09.98,0,1.95-.05,2.93-.09,1.47-.36,2.93-.31,4.42.03.74-.16,1.45-.3,2.16-.06.28-.13.57-.02.96Z"/>
      <path class="cls-1" d="m247.89,48.42c-.24.06-.29.23-.37.37-.29.48-.56.97-.85,1.45-1.06,1.76-2.49,3.06-4.37,3.96-2.77,1.32-6.36-1.27-5.81-4.59.3-1.78,1.28-3.05,2.77-3.95,1-.6,2.05-1.17,3.19-1.39,1.65-.32,3.28-.81,4.98-.8.71,0,.83-.11.86-.83.04-1,.19-1.99.14-2.99-.08-1.65-.8-2.9-2.26-3.71-.35-.2-.72-.31-1.13-.3-.48,0-.96.01-1.44,0-.69-.01-1.31.21-1.89.55-.87.51-1.25,1.41-1,2.4.14.54.32,1.08.47,1.62.06.22.14.44.17.66.06.48-.15.74-.62.72-.78-.03-1.53-.19-2.13-.75-.71-.65-.96-1.44-.71-2.38.27-1,.84-1.81,1.63-2.46,1.11-.9,2.31-1.64,3.73-1.95.22-.05.44-.12.65-.21,1.7-.66,3.34-.5,4.96.28.89.43,1.57,1.08,1.99,1.99.58,1.24.77,2.55.69,3.89-.08,1.45-.18,2.91-.33,4.36-.18,1.77-.07,3.54-.11,5.31-.02.81.32,1.5.83,2.1.38.45.86.68,1.47.71.89.03,1.75.04,2.51-.53.09-.07.23-.16.34-.07.14.11.08.27.04.41-.07.23-.22.4-.39.55-.92.82-1.97,1.4-3.17,1.67-1.25.28-2.92-.42-3.71-1.58-.71-1.04-.97-2.24-1.07-3.48-.03-.33.03-.67-.07-1.04Zm-8.14.55c.06.69.18,1.32.58,1.86.19.25.39.51.71.59.61.16,1.23.27,1.84.02,1.16-.48,2.24-1.07,3.08-2.06.9-1.07,1.44-2.33,1.93-3.61.08-.22.08-.45.07-.68,0-.27-.12-.44-.41-.44-.79-.01-1.57-.16-2.36.05-.5.13-1.01.23-1.52.35-.65.16-1.28.38-1.85.73-1.21.73-1.93,1.8-2.07,3.19Z"/>
      <path class="cls-1" d="m281.7,44.66c.21-2.87,1.36-6.22,4.08-8.91.61-.61,1.32-1.09,2.13-1.39.54-.21,1.09-.42,1.64-.59,2.36-.71,4.44-.1,6.3,1.42,1.57,1.28,2.39,3,2.77,4.96.67,3.47-.09,6.65-1.9,9.62-.74,1.22-1.6,2.34-2.81,3.14-1.21.8-2.55,1.32-3.95,1.64-.75.17-1.5.1-2.22-.12-2.12-.64-3.8-1.82-4.83-3.86-.8-1.6-1.25-3.26-1.2-5.91Zm13.87-.8c0-.37.02-.75,0-1.12-.11-1.64-.54-3.19-1.32-4.65-.54-1.01-1.36-1.71-2.38-2.21-1.53-.73-3.97-.3-5.04,1.29-.52.77-.94,1.57-1.21,2.45-.3.98-.45,1.99-.59,3-.25,1.84-.08,3.65.41,5.43.24.87.62,1.69,1.19,2.39,1.03,1.27,2.23,2.19,4.03,2.07,1.07-.08,1.93-.42,2.66-1.18.53-.55.9-1.19,1.2-1.89.77-1.79,1.08-3.66,1.06-5.6Z"/>
      <path class="cls-1" d="m332.74,35.64c-.87-.07-1.77.02-2.59.53-.25.15-.5.31-.72.49-.82.7-1.02,1.75-.53,2.71.43.84,1.14,1.43,1.93,1.91,1.07.65,2.2,1.19,3.33,1.71,1.12.51,2.21,1.07,3.17,1.86.52.43.97.91,1.34,1.47.97,1.44.81,2.92.1,4.39-.68,1.41-1.75,2.42-3.21,2.99-.7.27-1.4.53-2.12.75-.83.25-1.68.21-2.54.09-1.38-.19-2.68-.57-3.9-1.25-.73-.41-1.31-.96-1.64-1.74-.49-1.15-.16-1.99.96-2.5.3-.14.62-.25.95-.31.28-.05.5.06.59.34.1.3.18.6.26.9.18.68.58,1.21,1.16,1.57,1.82,1.14,3.74,1.29,5.73.51,1.04-.41,1.53-1.24,1.65-2.31.08-.67-.21-1.22-.64-1.7-.52-.58-1.13-1.06-1.82-1.41-1.09-.56-2.21-1.07-3.31-1.62-1.02-.51-2.05-1.03-2.95-1.75-1.09-.87-1.83-1.98-1.85-3.4-.02-1.79.56-3.38,2.07-4.47,1.96-1.41,4.17-2.04,6.59-1.92.31.02.62.08.91.2.62.25,1.24.49,1.84.78.85.4,1.41,1.08,1.68,1.99.32,1.07-.04,2-1.01,2.56-.48.28-1,.41-1.55.4-.4,0-.51-.12-.54-.52-.02-.23-.02-.46.02-.68.33-1.66-.83-2.33-2.19-2.55-.37-.06-.75,0-1.18,0Z"/>
      <path class="cls-1" d="m262.59,44.81c.03,1.58.02,3.17.28,4.73.11.69.38,1.32.79,1.89.46.64,1.06,1.02,1.88,1.06,1.27.05,2.49-.09,3.62-.73.2-.11.42-.19.65-.21.33-.03.46.12.41.45-.07.42-.37.64-.72.8-.49.23-.99.43-1.49.63-1.04.42-2.12.76-3.2,1.05-1.83.49-3.7-.47-4.48-2.11-.44-.92-.66-1.89-.75-2.89-.17-1.79-.14-3.57-.04-5.37.07-1.25.02-2.5.15-3.74.09-.87.16-1.74.23-2.61.03-.44.05-.87.04-1.31-.01-.41-.17-.55-.59-.55-.34,0-.66.1-.97.22-.29.11-.57.25-.86.37-.27.11-.56.17-.85.1-.23-.05-.31-.2-.23-.42.16-.43.47-.73.87-.94.36-.18.74-.26,1.13-.36.4-.1.81-.2,1.21-.3.41-.1.63-.34.68-.78.1-.97.22-1.94.36-2.91.25-1.81.52-3.63.86-5.43.04-.22.1-.45.17-.67.36-1.07,1.64-1.64,2.69-1.23.23.09.31.26.33.48.02.35,0,.71-.07,1.06-.56,2.71-.96,5.45-1.3,8.2-.03.21-.08.41-.1.62-.05.44.02.52.45.55.15,0,.29,0,.44,0,1.35,0,2.71,0,4.06,0,.21,0,.42,0,.62.02.7.08.95.46.74,1.13-.13.42-.4.73-.83.87-.28.09-.57.13-.86.14-.98.04-1.96-.07-2.93-.13-.46-.03-.89-.21-1.31-.4-.46-.21-.49-.18-.53.29-.12,1.33-.25,2.65-.34,3.98-.1,1.47-.2,2.95-.18,4.43Z"/>
      <path class="cls-1" d="m219.57,45.57c0-3.4,1.17-6.37,3.43-8.88,1.4-1.55,3.11-2.63,5.19-3.07,1.77-.38,3.41,0,4.91.91,1.36.83,2,2.43,1.64,3.82-.16.62-.47,1.15-.91,1.62-.7.74-1.51,1.31-2.44,1.7-1.74.72-3.51,1.32-5.42,1.37-.32,0-.62.09-.91.21-.59.23-1.19.38-1.82.4-.48.01-.61.15-.57.61.14,1.52.37,3.02.95,4.44.63,1.55,1.74,2.67,3.17,3.5.33.19.7.25,1.07.3,1.55.23,2.86-.34,4.09-1.19.53-.36,1.04-.77,1.46-1.27.16-.19.35-.36.58-.46.18-.08.37-.12.53.03.15.15.05.32-.02.46-.1.2-.22.4-.36.58-1.14,1.45-2.51,2.61-4.26,3.26-.12.04-.24.09-.34.15-1.52.86-3.06.66-4.58.06-3.58-1.42-5.14-4.23-5.37-7.92-.01-.21,0-.42,0-.62Zm4.36-3.06c.81.06,1.55-.29,2.34-.36.5-.04.99-.17,1.46-.32,1.04-.33,2.04-.75,2.8-1.57.79-.85,1.04-1.87.61-2.94-.45-1.12-1.36-1.73-2.57-1.78-1.59-.06-2.86.66-3.84,1.86-1.01,1.24-1.48,2.74-1.84,4.26-.16.69,0,.85.72.85.1,0,.21,0,.31,0Z"/>
      <path class="cls-1" d="m204.69,35.63c-.54-.03-1.16.03-1.77.21-.25.07-.54.18-.73-.11-.13-.2.02-.45.39-.69.62-.4,1.32-.62,2.02-.8.66-.18,1.33-.33,2-.49.47-.12.94-.18,1.42-.14.74.06,1.25.48,1.43,1.19.09.36.15.74.13,1.11-.09,1.75-.2,3.49-.4,5.23-.11.93-.02,1.87-.2,2.8-.05.29-.14.57-.12.86,0,.08.02.17.12.2.09.02.15-.04.2-.11.13-.22.18-.46.25-.7.56-1.87,1.14-3.74,2.06-5.49.68-1.3,1.41-2.55,2.5-3.56.8-.73,1.71-1.25,2.75-1.55,1.4-.4,2.98.81,3,2.27,0,.66-.14,1.28-.44,1.86-.22.42-.42.5-.87.37-.36-.11-.71-.24-1.06-.36-1.29-.44-2.4-.19-3.37.79-.76.76-1.4,1.58-1.88,2.55-1.33,2.65-2.14,5.46-2.75,8.34-.18.86-.31,1.72-.51,2.57-.23,1.05-.63,1.4-1.68,1.55-.29.04-.58.09-.87.08-.44-.02-.61-.21-.59-.64.08-1.39.18-2.78.27-4.17.05-.79.15-1.58.16-2.37.05-2.58.17-5.16.27-7.74.03-.75,0-1.5-.12-2.24-.12-.72-.2-.8-.91-.81-.21,0-.42,0-.71,0Z"/>
      <path class="cls-1" d="m30.98,12.78c-.46-.04-.91-.07-1.37-.12-.5-.05-.94.09-1.36.35-2.24,1.35-4.64,2.35-7.13,3.15-.59.19-1.2.35-1.82.42-.5.06-.96-.04-1.34-.37-.34-.29-.4-.59-.23-1,.18-.44.49-.77.9-1,.82-.46,1.69-.81,2.53-1.22,2.3-1.12,4.66-2.13,6.76-3.63.58-.41,1.12-.86,1.63-1.35.52-.49.76-1.07.77-1.78,0-.65.1-1.28.42-1.87.34-.62.83-1.08,1.44-1.43,1-.56,2.05-1.03,3.12-1.42,1.72-.63,3.44-1.24,5.28-1.47.63-.08,1.2-.03,1.76.23.76.35,1.42.86,2.14,1.28.19.11.2.26,0,.39-.21.14-.44.23-.68.31-2.56.82-5.15,1.53-7.75,2.19-.75.19-1.48.42-2.19.74-.55.25-.78.62-.77,1.22.02,1.12,0,2.25,0,3.37,0,.46-.02.92-.14,1.36-.13.49-.35.93-.73,1.28-.37.33-.79.44-1.27.39Z"/>
      <path class="cls-1" d="m277.71,52.46c.62.11,1.3-.13,1.99-.4.24-.1.52-.26.7.1.11.22,0,.41-.37.62-1.43.8-2.95,1.35-4.55,1.69-.04,0-.08.02-.12.02-1.41.21-2.12-.25-2.51-1.62-.22-.79-.31-1.59-.38-2.4-.11-1.33-.26-2.66-.23-3.99.03-1.41.07-2.83.13-4.24.02-.37.05-.75.05-1.12.01-1.98.14-3.95.26-5.92.07-1.05.59-1.6,1.63-1.71.43-.04.87,0,1.31,0,.33,0,.47.17.49.51.03.69-.07,1.37-.15,2.05-.2,1.57-.36,3.14-.37,4.73,0,1.33-.08,2.66-.04,3.99.04,1.43-.04,2.87-.07,4.31-.02.63.07,1.25.14,1.87.02.16.07.33.12.48.27.86.5,1.02,1.39,1.03.15,0,.29,0,.57,0Z"/>
      <path class="cls-1" d="m22.65,57.62c-.46,0-.92.02-1.37,0-.43-.02-.52-.2-.31-.57.15-.25.34-.48.53-.7,1.02-1.18,1.95-2.44,3.07-3.54.69-.68,1.43-1.27,2.28-1.73,1.24-.66,2.31-1.54,3.34-2.5.9-.84,1.83-1.63,2.77-2.43,1.25-1.07,2.38-2.27,3.55-3.43.74-.74,1.54-1.4,2.45-1.92.12-.07.24-.21.39-.11.17.12.11.29.06.46-.1.37-.31.68-.57.95-1.89,1.95-3.89,3.76-5.96,5.51-1.32,1.12-2.72,2.13-3.94,3.36-.43.43-.73.89-.85,1.49-.16.84-.5,1.58-1.12,2.19-.31.31-.53.69-.74,1.08-.11.2-.23.4-.34.6-.52.93-1.3,1.37-2.37,1.3-.29-.02-.58,0-.87,0h0Z"/>
      <path class="cls-1" d="m50.88,44.48c.24.15.37.42.51.66.43.74,1.05,1.22,1.84,1.51.55.2,1.08.44,1.63.64,1.39.5,2.34,1.49,3.01,2.76.84,1.6,1.36,3.31,1.72,5.07.12.57.26,1.14.38,1.71.13.63-.09.86-.72.79-.46-.05-.77-.3-.95-.71-.18-.38-.27-.79-.36-1.19-.15-.67-.38-1.32-.58-1.98-.41-1.33-1.23-2.34-2.32-3.16-.58-.44-1.18-.85-1.8-1.24-.21-.13-.42-.27-.63-.4-1.56-.95-2.03-2.39-1.9-4.12,0-.12,0-.25.18-.33Z"/>
      <path class="cls-1" d="m272.99,25.1c-.02-1.13.99-2.35,2.1-2.54.26-.04.5,0,.74.08,1.01.31,1.86,1.85,1.4,2.9-.32.72-.72,1.35-1.43,1.75-.73.41-1.32.32-1.92-.26-.55-.53-.86-1.16-.89-1.93Z"/>
    </g>
  </g>
</svg>