<?xml version="1.0" encoding="utf-8"?>
<!-- Generator: Adobe Illustrator 27.5.0, SVG Export Plug-In . SVG Version: 6.00 Build 0)  -->
<svg version="1.1" id="Layer_1" xmlns="http://www.w3.org/2000/svg" xmlns:xlink="http://www.w3.org/1999/xlink" x="0px" y="0px"
	 viewBox="0 0 1920 1080" style="enable-background:new 0 0 1920 1080;" xml:space="preserve">
<style type="text/css">
	.st0{fill:#FFFFFF;}
</style>
<g>
	<path class="st0" d="M838.13,560.67c-0.31-0.17-0.46-0.42-0.57-0.69c-0.48-1.18-0.95-2.36-1.12-3.63c-0.04-0.33-0.08-0.66-0.07-1
		c0.02-1.48-0.07-2.96,0.1-4.43c0.02-0.17,0.02-0.33,0.02-0.5c0-0.23,0.07-0.5-0.17-0.63c-0.22-0.12-0.38,0.1-0.55,0.21
		c-1.6,1.07-3.33,1.24-5.14,0.72c-0.99-0.28-1.68-0.98-2.29-1.76c-0.39-0.5-0.67-1.06-0.91-1.63c-1.03-2.41-1.71-4.91-1.97-7.53
		c-0.08-0.85-0.29-1.68-0.61-2.48c-0.47-1.16-0.35-1.5,0.71-2.17c0.09-0.06,0.18-0.1,0.27-0.16c0.12-0.08,0.27-0.16,0.19-0.34
		c-0.07-0.17-0.25-0.14-0.39-0.12c-0.49,0.07-0.98,0.21-1.48,0.24c-1.83,0.14-3.65,0.33-5.48,0.44c-1.14,0.07-2.29,0-3.44,0.03
		c-1.88,0.05-3.74-0.18-5.61-0.31c-1.54-0.11-3.07-0.27-4.59-0.54c-3.43-0.61-6.8-1.47-10.05-2.75c-1.2-0.47-2.38-0.99-3.57-1.5
		c-0.4-0.17-0.77-0.42-1.09-0.72c-0.1-0.1-0.24-0.21-0.17-0.37c0.08-0.19,0.25-0.1,0.38-0.07c0.24,0.06,0.5,0.11,0.72,0.21
		c1.3,0.63,2.71,0.94,4.09,1.36c3.13,0.94,6.32,1.67,9.57,2.1c1.57,0.21,3.13,0.43,4.72,0.44c0.85,0,1.7,0.12,2.55,0.21
		c1.27,0.13,2.54,0.09,3.81,0.01c0.81-0.05,1.62-0.17,2.43-0.19c2.48-0.07,4.94-0.33,7.4-0.67c2.64-0.36,5.27-0.76,7.9-1.23
		c4.56-0.82,9.04-1.96,13.46-3.31c4.62-1.42,9.14-3.15,13.51-5.23c1.92-0.91,3.83-1.83,5.62-3c0.26-0.17,0.53-0.34,0.74-0.57
		c0.08-0.09,0.16-0.2,0.09-0.34c-0.07-0.13-0.2-0.13-0.33-0.12c-0.16,0.02-0.33,0.04-0.49,0.09c-4.34,1.18-8.77,2.01-13.15,3.04
		c-1.6,0.37-1.68,0.44-2.17,2.02c-0.1,0.34-0.18,0.69-0.31,1.01c-0.22,0.55-0.49,0.63-1.02,0.35c-0.34-0.18-0.57-0.49-0.82-0.76
		c-0.32-0.34-0.67-0.37-1.08-0.22c-0.19,0.07-0.3,0.22-0.41,0.37c-0.44,0.65-1.08,1.1-1.66,1.59c-0.45,0.37-1.01,0.48-1.57,0.57
		c-0.33,0.05-0.63-0.14-0.77-0.51c-0.18-0.48-0.33-0.98-0.48-1.48c-0.07-0.22-0.05-0.45,0.02-0.68c0.05-0.19,0.05-0.37-0.09-0.53
		c-0.14-0.16-0.31-0.3-0.54-0.27c-0.2,0.03-0.22,0.23-0.27,0.38c-0.48,1.5-1.13,2.91-2.03,4.21c-0.27,0.39-0.6,0.68-1.01,0.91
		c-0.33,0.18-0.64,0.22-1.01,0.07c-1.24-0.49-2.18-1.77-2.23-3.11c-0.01-0.24,0.05-0.45,0.17-0.66c0.08-0.14,0.17-0.28,0.25-0.43
		c0.07-0.14,0.2-0.3,0.09-0.46c-0.13-0.21-0.33-0.11-0.51-0.06c-1.77,0.47-3.56,0.86-5.38,1.09c-0.23,0.03-0.46,0.05-0.68,0.05
		c-1.71,0-3.42,0-5.12,0c-0.42,0-0.83-0.07-1.24-0.12c-0.16-0.02-0.33-0.08-0.48-0.14c-0.15-0.07-0.36-0.13-0.36-0.31
		c0.01-0.23,0.25-0.26,0.43-0.29c0.97-0.13,1.95-0.22,2.9-0.42c0.86-0.18,1.74-0.17,2.61-0.21c1.95-0.09,3.84-0.47,5.71-1.01
		c0.58-0.17,1.14-0.4,1.7-0.63c0.44-0.19,0.49-0.37,0.2-0.75c-0.19-0.25-0.42-0.47-0.64-0.69c-0.38-0.38-0.74-0.79-1.05-1.24
		c-0.56-0.81-0.48-1.31,0.27-1.95c1.34-1.15,2.89-1.9,4.56-2.41c2.24-0.69,4.53-1.1,6.89-1.01c0.55,0.02,1.07,0.14,1.57,0.36
		c0.3,0.13,0.53,0.34,0.54,0.7c0.01,0.35-0.23,0.53-0.5,0.65c-0.41,0.19-0.66,0.56-0.95,0.88c-0.22,0.24-0.24,0.53-0.05,0.8
		c0.1,0.14,0.18,0.3,0.31,0.39c0.98,0.68,1.79,1.55,2.77,2.24c0.44,0.31,0.88,0.44,1.4,0.38c0.79-0.08,1.56-0.29,2.32-0.5
		c2.51-0.71,5.04-1.28,7.61-1.74c1.97-0.35,3.91-0.81,5.87-1.21c0.84-0.17,1.69-0.26,2.54-0.09c0.25,0.05,0.49,0.12,0.68,0.3
		c0.44,0.42,0.49,0.96,0.08,1.45c-0.47,0.56-1,1.06-1.58,1.51c-1.78,1.42-3.69,2.64-5.76,3.61c-2.43,1.14-4.82,2.38-7.31,3.4
		c-3.68,1.52-7.4,2.92-11.28,3.86c-0.28,0.07-0.56,0.15-0.84,0.24c-0.45,0.15-0.52,0.26-0.41,0.74c0.04,0.18,0.11,0.36,0.15,0.54
		c0.17,0.7-0.01,1.27-0.6,1.71c-0.55,0.41-1.08,0.85-1.58,1.33c-0.37,0.35-0.56,0.75-0.53,1.27c0.03,0.5,0.05,1,0.08,1.5
		c0.06,0.94-0.11,1.87-0.4,2.76c-0.4,1.23-0.85,2.44-1.25,3.67c-0.88,2.7-1.2,5.48-1.19,8.31c0.01,2.38,0.11,4.74,0.45,7.1
		C838.22,560.38,838.25,560.5,838.13,560.67z M840.62,516c0.19,0,0.37,0.05,0.54,0.13c1.13,0.56,2.36,0.9,3.42,1.6
		c0.2,0.13,0.4,0.03,0.36-0.22c-0.08-0.56,0.32-0.82,0.65-1.11c0.15-0.13,0.37-0.19,0.54-0.3c0.2-0.12,0.55-0.17,0.48-0.48
		c-0.07-0.3-0.4-0.32-0.67-0.35c-0.02,0-0.04,0-0.06,0c-1.16-0.03-2.32-0.08-3.48-0.1c-0.37-0.01-0.74,0.05-1.11,0.11
		C840.85,515.35,840.7,515.53,840.62,516c-1.12-0.21-2,0.3-2.83,0.96c-0.24,0.2-0.22,0.32,0.08,0.44c0.44,0.17,0.9,0.32,1.36,0.43
		c0.63,0.15,1.02-0.1,1.25-0.72C840.6,516.74,840.61,516.37,840.62,516z M836.53,525.73c0.01,0.08,0,0.17,0.03,0.25
		c0.28,0.7,0.62,1.36,1.09,1.95c0.23,0.29,0.55,0.32,0.91,0.19c0.41-0.15,0.71-0.43,0.94-0.79c0.43-0.69,0.85-1.38,1.26-2.08
		c0.07-0.12,0.13-0.26,0.17-0.4c0.12-0.41,0.06-0.6-0.3-0.84c-0.26-0.18-0.51-0.36-0.79-0.5c-0.65-0.33-1-0.28-1.52,0.23
		c-0.49,0.48-0.96,0.98-1.5,1.41C836.64,525.29,836.52,525.48,836.53,525.73z M845.22,523.51c0,0.01,0,0.01,0,0.02
		c-0.44,0-0.87,0-1.31,0c-0.21,0-0.4,0.09-0.35,0.33c0.12,0.65,0.25,1.31,0.63,1.88c0.14,0.22,0.3,0.17,0.47,0.05
		c0.36-0.25,0.69-0.54,0.97-0.88c0.58-0.68,1.3-1.06,2.15-1.29c0.54-0.15,0.98-0.08,1.39,0.26c0.21,0.17,0.44,0.23,0.7,0.21
		c0.16-0.01,0.27-0.08,0.33-0.23c0.25-0.65-0.13-1.22-0.83-1.23c-0.73-0.02-1.39,0.24-2.02,0.57c-0.46,0.24-0.93,0.34-1.44,0.32
		C845.68,523.5,845.45,523.51,845.22,523.51z M846.48,520.5c-0.02-0.44-0.08-0.89-0.49-1.15c-0.42-0.26-0.87-0.49-1.31-0.71
		c-0.13-0.07-0.28-0.11-0.41,0c-0.15,0.13-0.13,0.3-0.05,0.46c0.2,0.41,0.27,0.87,0.52,1.27c0.13,0.2,0.27,0.5,0.01,0.68
		c-0.28,0.19-0.44-0.09-0.58-0.3c-0.01-0.02-0.02-0.03-0.03-0.05c-0.16-0.27-0.41-0.34-0.7-0.28c-0.24,0.06-0.42,0.23-0.44,0.47
		c-0.02,0.27,0.24,0.37,0.42,0.49c0.81,0.54,1.63,0.32,2.45,0.04C846.31,521.26,846.5,520.95,846.48,520.5z M836.74,518.41
		c-0.32-0.02-0.62,0.04-0.89,0.22c-0.31,0.21-0.34,0.39-0.08,0.66c0.48,0.49,1.04,0.89,1.58,1.31c0.2,0.15,0.44,0.17,0.65,0.05
		c0.46-0.25,0.85-0.6,1.09-1.08c0.11-0.22,0.09-0.4-0.15-0.52C838.24,518.72,837.52,518.45,836.74,518.41z M840.74,522.3
		c-0.23-0.02-0.34,0.12-0.36,0.37c-0.02,0.3,0.17,0.57,0.42,0.59c0.22,0.02,0.47-0.17,0.47-0.38
		C841.29,522.55,841.08,522.31,840.74,522.3z"/>
	<path class="st0" d="M936.81,532.1c0.85,0,1.71,0,2.56,0c0.55,0,1.08,0.08,1.59,0.28c0.45,0.17,0.92,0.25,1.4,0.32
		c3.48,0.55,6.4,2.08,8.54,4.93c0.89,1.19,1.47,2.58,1.82,4.02c1.28,5.2,0.71,10.23-1.74,14.99c-1.45,2.81-3.58,5.06-6.38,6.61
		c-1.1,0.61-2.23,1.12-3.47,1.37c-0.82,0.16-1.62,0.38-2.44,0.52c-1.46,0.25-2.91,0.1-4.34-0.19c-1.04-0.22-2.08-0.41-3.12-0.62
		c-0.51-0.1-1.04-0.04-1.56-0.07c-1.07-0.06-1.15-0.13-1.07-1.19c0.2-2.68,0.21-5.37,0.48-8.04c0.01-0.06,0.01-0.12,0.01-0.19
		c0.03-3.48,0.3-6.95,0.12-10.43c-0.06-1.14-0.08-2.29-0.09-3.43c-0.02-1.65,0.07-3.29,0.2-4.93c0.09-1.19-0.42-1.76-1.61-1.78
		c-0.58-0.01-1.17-0.01-1.75,0c-0.36,0-0.71-0.05-1.05-0.11c-0.32-0.06-0.36-0.21-0.18-0.49c0.13-0.2,0.29-0.36,0.52-0.42
		c0.22-0.06,0.45-0.12,0.67-0.12c0.55,0,1.07-0.1,1.59-0.26c0.22-0.07,0.45-0.11,0.68-0.11c1.63,0.01,3.24-0.15,4.83-0.5
		C934.26,531.96,935.55,532.12,936.81,532.1z M936.3,534.26C936.3,534.26,936.3,534.26,936.3,534.26c-0.87,0-1.75-0.01-2.62,0.01
		c-0.46,0.01-0.54,0.08-0.65,0.51c-0.08,0.32-0.12,0.65-0.11,0.99c0.03,0.87,0.07,1.75,0.08,2.62c0.02,1.73-0.16,3.45-0.2,5.18
		c-0.05,2.44-0.19,4.87-0.16,7.31c0,0.33-0.02,0.67-0.04,1c-0.07,1.31-0.15,2.62-0.2,3.93c-0.07,1.96-0.12,3.91-0.34,5.86
		c-0.08,0.73,0.1,1,0.81,1.16c0.71,0.16,1.42,0.3,2.16,0.29c1.08-0.01,2.17,0.02,3.25,0c2.35-0.06,4.45-0.89,6.3-2.29
		c1.83-1.38,3-3.27,3.75-5.42c0.61-1.74,0.93-3.54,1.06-5.38c0.17-2.49,0.14-4.96-0.45-7.39c-0.99-4.13-3.51-6.81-7.64-7.92
		c-1.29-0.35-2.61-0.55-3.95-0.47C937.01,534.27,936.65,534.26,936.3,534.26z"/>
	<path class="st0" d="M906.77,545.82c-0.05,2.49-0.04,4.74-0.16,6.98c-0.14,2.74-0.22,5.49-0.31,8.24
		c-0.01,0.42-0.01,0.83-0.02,1.25c-0.02,0.77-0.37,1.3-1.11,1.56c-0.47,0.17-0.96,0.27-1.46,0.33c-0.73,0.09-0.95-0.09-0.96-0.83
		c-0.01-0.62-0.01-1.25,0.02-1.87c0.06-1.39,0.13-2.79,0.23-4.18c0.15-2,0.03-4,0.14-5.99c0.09-1.64,0.09-3.29,0.16-4.93
		c0.04-0.89-0.06-1.79-0.12-2.68c-0.11-1.75-0.09-3.49-0.01-5.24c0.05-0.96,0.07-1.91,0.07-2.87c0-0.83-0.42-1.26-1.26-1.31
		c-0.66-0.04-1.33-0.02-2-0.02c-0.36,0-0.71-0.04-1.05-0.11c-0.32-0.07-0.37-0.22-0.2-0.5c0.12-0.21,0.29-0.35,0.52-0.42
		c0.28-0.07,0.57-0.14,0.86-0.13c0.36,0.01,0.71-0.05,1.05-0.14c1-0.25,2.02-0.28,3.04-0.27c0.69,0,1.37-0.06,2.03-0.28
		c0.68-0.22,1.38-0.33,2.09-0.32c1.42,0,2.83,0,4.25,0c0.23,0,0.47,0,0.68,0.06c0.9,0.27,1.83,0.42,2.71,0.73
		c1.89,0.65,3.35,1.85,4.12,3.75c0.47,1.15,0.53,2.36,0.39,3.57c-0.43,3.63-2.48,6.08-5.72,7.62c-0.71,0.34-1.47,0.59-2.2,0.88
		c-0.54,0.22-0.56,0.27-0.28,0.76c1.9,3.36,3.92,6.63,6.25,9.71c0.69,0.92,1.46,1.76,2.28,2.57c1.27,1.26,2.78,1.58,4.49,1.27
		c0.33-0.06,0.65-0.15,0.99-0.04c0.38,0.12,0.45,0.33,0.22,0.66c-0.18,0.27-0.45,0.43-0.75,0.54c-0.43,0.16-0.87,0.29-1.32,0.39
		c-0.47,0.11-0.94,0.2-1.39,0.36c-1.63,0.61-3.02,0.12-4.31-0.87c-0.82-0.63-1.48-1.41-2.13-2.19c-2.36-2.8-4.25-5.91-6.09-9.06
		c-0.72-1.22-1.34-2.49-2.17-3.65c-0.04-0.05-0.07-0.1-0.1-0.16c-0.33-0.62-0.17-0.9,0.51-0.91c1.61-0.03,3.14-0.39,4.56-1.13
		c2.14-1.1,3.27-2.9,3.43-5.29c0.07-1.04,0.08-2.08-0.15-3.11c-0.42-1.95-1.52-3.27-3.45-3.91c-0.84-0.28-1.68-0.43-2.57-0.4
		c-0.92,0.03-1.83,0-2.75,0.01c-0.57,0.01-0.63,0.06-0.72,0.63c-0.03,0.18-0.05,0.37-0.05,0.56c-0.06,2.08-0.12,4.16-0.16,6.24
		C906.85,543.15,906.73,544.6,906.77,545.82z"/>
	<path class="st0" d="M886.33,532.09c1.09,0,1.13,0.02,1.35,1.1c0.37,1.82,0.63,3.65,0.97,5.47c0.99,5.17,1.91,10.36,3.16,15.48
		c0.47,1.92,0.96,3.84,1.7,5.68c0.43,1.09,1.11,1.99,1.99,2.76c0.41,0.36,0.87,0.53,1.42,0.52c0.77-0.01,1.54-0.06,2.31-0.13
		c0.23-0.02,0.56-0.12,0.66,0.18c0.08,0.24-0.19,0.39-0.37,0.53c-0.19,0.16-0.4,0.31-0.63,0.4c-1.18,0.46-2.4,0.85-3.65,1.08
		c-1.5,0.28-2.7-0.26-3.57-1.51c-0.73-1.05-1.26-2.2-1.66-3.42c-0.87-2.68-1.49-5.42-2.18-8.14c-0.14-0.54-0.17-0.57-0.72-0.5
		c-0.68,0.09-1.37,0.05-2.06,0.04c-0.99-0.02-1.95,0.1-2.91,0.33c-1.2,0.29-2.43,0.29-3.66,0.29c-1.07,0.01-1.04-0.24-1.52,1.04
		c-0.59,1.58-1.12,3.18-1.68,4.77c-0.62,1.77-1.26,3.53-1.88,5.3c-0.12,0.34-0.27,0.66-0.48,0.94c-0.38,0.51-0.88,0.84-1.51,0.9
		c-0.5,0.05-1,0.04-1.5,0.02c-0.39-0.02-0.49-0.16-0.36-0.53c0.2-0.55,0.44-1.08,0.68-1.61c1.48-3.24,2.98-6.47,4.37-9.75
		c0.29-0.69,0.54-1.4,0.62-2.15c0.05-0.45,0.23-0.83,0.61-1.11c0.38-0.28,0.59-0.7,0.78-1.12c0.66-1.49,1.31-2.97,1.95-4.47
		c1.61-3.71,3.39-7.33,5.27-10.91c0.02-0.04,0.04-0.07,0.06-0.11C884.58,532.34,885.02,532.09,886.33,532.09z M882.79,550.09
		c1.23,0,2.46,0,3.69,0c0.93,0,0.97-0.06,0.79-0.95c-0.36-1.69-0.72-3.38-1.05-5.08c-0.48-2.49-0.94-4.99-1.48-7.47
		c-0.01-0.06-0.02-0.12-0.03-0.18c-0.03-0.1-0.07-0.21-0.19-0.22c-0.14-0.01-0.16,0.12-0.18,0.21c-0.13,0.58-0.44,1.08-0.7,1.6
		c-0.51,1.02-1.04,2.04-1.48,3.1c-0.84,2.02-1.71,4.02-2.67,5.99c-0.39,0.8-0.74,1.63-1.09,2.46c-0.18,0.42-0.1,0.53,0.34,0.55
		c0.12,0.01,0.25,0,0.37,0C880.34,550.09,881.56,550.09,882.79,550.09z"/>
	<path class="st0" d="M990.29,536.46c0.1,1.09-0.19,2.34-0.27,3.61c-0.01,0.1-0.04,0.2-0.08,0.3c-0.11,0.24-0.26,0.45-0.55,0.44
		c-0.32,0-0.42-0.26-0.46-0.51c-0.08-0.51-0.16-1.03-0.17-1.55c-0.01-1.06-0.44-1.95-1.1-2.73c-0.97-1.15-2.15-2-3.64-2.41
		c-0.85-0.23-1.7-0.41-2.58-0.36c-0.35,0.02-0.71,0.01-1.06,0c-2.8-0.1-4.98,1.13-6.78,3.16c-1.68,1.9-2.53,4.19-3.07,6.61
		c-0.39,1.77-0.6,3.58-0.58,5.39c0.05,3.25,0.55,6.44,2.13,9.35c1.23,2.26,3.02,3.96,5.46,4.92c0.72,0.28,1.47,0.45,2.25,0.44
		c0.87-0.02,1.75,0.06,2.62-0.1c1.74-0.32,3.24-1.17,4.71-2.1c0.76-0.48,1.43-1.08,2.11-1.65c0.08-0.07,0.15-0.14,0.24-0.2
		c0.2-0.13,0.39-0.4,0.65-0.21c0.23,0.17,0.24,0.47,0.18,0.75c-0.07,0.29-0.24,0.54-0.45,0.74c-2.06,1.99-4.29,3.7-7.17,4.34
		c-1.04,0.23-2.05,0.57-3.13,0.56c-1.8-0.01-3.49-0.49-5.15-1.16c-2.96-1.19-4.92-3.43-6.38-6.16c-1.22-2.3-1.82-4.77-1.95-7.36
		c-0.17-3.28,0.39-6.44,1.65-9.46c1.22-2.94,3.08-5.42,5.66-7.32c1.22-0.9,2.59-1.52,4.03-1.95c1.66-0.49,3.34-0.91,5.1-0.75
		c0.37,0.03,0.75,0.04,1.12,0.12c1.57,0.34,3.14,0.64,4.6,1.35c0.57,0.28,1.08,0.63,1.55,1.04c0.33,0.29,0.51,0.64,0.5,1.09
		C990.27,535.22,990.29,535.75,990.29,536.46z"/>
	<path class="st0" d="M1096.97,556.15c0.35-0.3,0.46-0.65,0.58-0.97c0.23-0.58,0.43-1.17,0.64-1.76c0.85-2.37,2.03-4.56,3.63-6.51
		c1.02-1.24,2.32-2.09,3.8-2.65c1.23-0.46,2.31,0,3.24,0.78c1.04,0.87,1.47,2.09,1.66,3.4c0.19,1.29,0.03,2.58-0.08,3.86
		c-0.24,2.65-0.6,5.3-0.53,7.97c0.01,0.46,0.04,0.92,0.11,1.37c0.17,1.1,0.75,1.47,1.61,1.45c0.82-0.02,1.62-0.03,2.39-0.34
		c0.41-0.17,0.84-0.23,1.21,0.11c-0.03,0.18-0.16,0.22-0.26,0.28c-1.64,0.84-3.31,1.57-5.13,1.93c-0.14,0.03-0.29,0.05-0.43,0.07
		c-0.82,0.11-1.41-0.25-1.82-0.94c-0.36-0.6-0.52-1.27-0.6-1.96c-0.26-2.02-0.18-4.03,0.04-6.04c0.23-2.09,0.44-4.18,0.44-6.29
		c0-0.69-0.18-1.31-0.55-1.89c-0.58-0.91-1.27-1.15-2.3-0.77c-1.03,0.38-1.82,1.08-2.53,1.89c-0.68,0.77-1.21,1.63-1.7,2.54
		c-1.55,2.89-2.57,5.95-3.17,9.17c-0.08,0.45-0.14,0.9-0.21,1.36c-0.06,0.41-0.14,0.82-0.3,1.21c-0.2,0.49-0.56,0.77-1.09,0.81
		c-0.35,0.02-0.71,0.03-1.06,0.01c-0.54-0.03-0.74-0.22-0.68-0.74c0.07-0.66,0.08-1.33,0.13-1.99c0.12-1.87,0.28-3.73,0.34-5.61
		c0.07-2.25,0.16-4.49,0.23-6.74c0.02-0.67,0.02-1.33-0.12-1.99c-0.04-0.18-0.09-0.36-0.15-0.54c-0.08-0.25-0.25-0.38-0.51-0.37
		c-0.97,0.02-1.96-0.15-2.9,0.27c-0.08,0.03-0.16,0.05-0.24,0.06c-0.33,0.04-0.51-0.19-0.39-0.51c0.1-0.25,0.31-0.38,0.53-0.51
		c0.55-0.31,1.14-0.52,1.75-0.66c0.73-0.18,1.45-0.37,2.17-0.58c0.5-0.15,1.01-0.25,1.54-0.14c0.82,0.18,1.3,0.65,1.38,1.48
		c0.09,0.98,0.01,1.95-0.05,2.93c-0.09,1.47-0.36,2.93-0.31,4.42c0.03,0.74-0.16,1.45-0.3,2.16
		C1096.94,555.48,1096.87,555.76,1096.97,556.15z"/>
	<path class="st0" d="M1038.05,559.05c-0.24,0.06-0.29,0.23-0.37,0.37c-0.29,0.48-0.56,0.97-0.85,1.45
		c-1.06,1.76-2.49,3.06-4.37,3.96c-2.77,1.32-6.36-1.27-5.81-4.59c0.3-1.78,1.28-3.05,2.77-3.95c1-0.6,2.05-1.17,3.19-1.39
		c1.65-0.32,3.28-0.81,4.98-0.8c0.71,0,0.83-0.11,0.86-0.83c0.04-1,0.19-1.99,0.14-2.99c-0.08-1.65-0.8-2.9-2.26-3.71
		c-0.35-0.2-0.72-0.31-1.13-0.3c-0.48,0.01-0.96,0.01-1.44,0c-0.69-0.02-1.31,0.21-1.89,0.55c-0.87,0.51-1.25,1.41-1,2.4
		c0.14,0.54,0.32,1.08,0.47,1.62c0.06,0.22,0.14,0.44,0.17,0.66c0.06,0.48-0.15,0.74-0.62,0.72c-0.78-0.03-1.53-0.19-2.13-0.75
		c-0.71-0.65-0.96-1.44-0.71-2.38c0.27-1,0.84-1.81,1.63-2.46c1.11-0.9,2.31-1.64,3.73-1.95c0.22-0.05,0.44-0.12,0.65-0.21
		c1.7-0.66,3.34-0.5,4.96,0.28c0.89,0.43,1.57,1.08,1.99,1.99c0.58,1.24,0.77,2.55,0.69,3.89c-0.08,1.45-0.18,2.91-0.33,4.36
		c-0.18,1.77-0.07,3.54-0.11,5.31c-0.02,0.81,0.32,1.5,0.83,2.1c0.38,0.45,0.86,0.68,1.47,0.71c0.89,0.03,1.75,0.04,2.51-0.53
		c0.09-0.07,0.23-0.16,0.34-0.07c0.14,0.11,0.08,0.27,0.04,0.41c-0.07,0.23-0.22,0.4-0.39,0.55c-0.92,0.82-1.97,1.4-3.17,1.67
		c-1.25,0.28-2.92-0.42-3.71-1.58c-0.71-1.04-0.97-2.24-1.07-3.48C1038.09,559.75,1038.15,559.42,1038.05,559.05z M1029.91,559.6
		c0.06,0.69,0.18,1.32,0.58,1.86c0.19,0.25,0.39,0.51,0.71,0.59c0.61,0.16,1.23,0.27,1.84,0.02c1.16-0.48,2.24-1.07,3.08-2.06
		c0.9-1.07,1.44-2.33,1.93-3.61c0.08-0.22,0.08-0.45,0.07-0.68c-0.01-0.27-0.12-0.44-0.41-0.44c-0.79-0.01-1.57-0.16-2.36,0.05
		c-0.5,0.13-1.01,0.23-1.52,0.35c-0.65,0.16-1.28,0.38-1.85,0.73C1030.77,557.13,1030.05,558.2,1029.91,559.6z"/>
	<path class="st0" d="M1071.86,555.29c0.21-2.87,1.36-6.22,4.08-8.91c0.61-0.61,1.32-1.09,2.13-1.39c0.54-0.21,1.09-0.42,1.64-0.59
		c2.36-0.71,4.44-0.1,6.3,1.42c1.57,1.28,2.39,3,2.77,4.96c0.67,3.47-0.09,6.65-1.9,9.62c-0.74,1.22-1.6,2.34-2.81,3.14
		c-1.21,0.8-2.55,1.32-3.95,1.64c-0.75,0.17-1.5,0.1-2.22-0.12c-2.12-0.64-3.8-1.82-4.83-3.86
		C1072.26,559.6,1071.82,557.94,1071.86,555.29z M1085.73,554.49c0-0.37,0.02-0.75,0-1.12c-0.11-1.64-0.54-3.19-1.32-4.65
		c-0.54-1.01-1.36-1.71-2.39-2.21c-1.53-0.73-3.97-0.3-5.04,1.29c-0.52,0.77-0.94,1.57-1.21,2.45c-0.3,0.98-0.45,1.99-0.59,3
		c-0.25,1.84-0.08,3.65,0.42,5.43c0.24,0.87,0.62,1.69,1.19,2.39c1.03,1.27,2.23,2.19,4.03,2.07c1.07-0.08,1.93-0.42,2.66-1.18
		c0.53-0.55,0.9-1.19,1.2-1.88C1085.45,558.3,1085.76,556.43,1085.73,554.49z"/>
	<path class="st0" d="M1122.9,546.26c-0.87-0.07-1.77,0.02-2.59,0.53c-0.25,0.15-0.5,0.31-0.72,0.49c-0.82,0.7-1.02,1.75-0.53,2.71
		c0.43,0.84,1.14,1.43,1.93,1.91c1.07,0.65,2.2,1.19,3.33,1.71c1.12,0.51,2.21,1.07,3.17,1.86c0.52,0.43,0.97,0.91,1.34,1.47
		c0.97,1.44,0.81,2.92,0.1,4.39c-0.68,1.41-1.75,2.42-3.21,2.99c-0.7,0.27-1.4,0.53-2.12,0.75c-0.83,0.25-1.68,0.21-2.54,0.09
		c-1.38-0.19-2.68-0.57-3.9-1.25c-0.73-0.41-1.31-0.96-1.64-1.74c-0.49-1.15-0.16-1.99,0.96-2.5c0.3-0.14,0.62-0.25,0.95-0.31
		c0.28-0.05,0.5,0.06,0.59,0.34c0.1,0.3,0.18,0.6,0.26,0.9c0.18,0.68,0.58,1.21,1.16,1.57c1.82,1.14,3.74,1.29,5.73,0.51
		c1.04-0.41,1.53-1.24,1.65-2.31c0.08-0.67-0.21-1.22-0.64-1.7c-0.52-0.58-1.13-1.06-1.82-1.41c-1.09-0.56-2.21-1.07-3.31-1.62
		c-1.02-0.51-2.05-1.03-2.95-1.75c-1.09-0.87-1.83-1.98-1.85-3.4c-0.02-1.79,0.56-3.38,2.07-4.47c1.96-1.41,4.17-2.04,6.59-1.92
		c0.31,0.02,0.62,0.08,0.91,0.2c0.62,0.25,1.24,0.49,1.84,0.78c0.85,0.4,1.41,1.08,1.68,1.99c0.32,1.07-0.04,2-1.01,2.56
		c-0.48,0.28-1,0.41-1.55,0.4c-0.4-0.01-0.51-0.12-0.54-0.52c-0.02-0.23-0.02-0.46,0.02-0.68c0.33-1.66-0.83-2.33-2.19-2.55
		C1123.72,546.21,1123.34,546.26,1122.9,546.26z"/>
	<path class="st0" d="M1052.75,555.44c0.03,1.58,0.02,3.17,0.28,4.73c0.11,0.69,0.38,1.32,0.79,1.89c0.46,0.64,1.06,1.02,1.88,1.06
		c1.27,0.05,2.49-0.09,3.62-0.73c0.2-0.11,0.42-0.19,0.65-0.21c0.33-0.03,0.46,0.12,0.41,0.45c-0.07,0.42-0.37,0.64-0.72,0.8
		c-0.49,0.23-0.99,0.43-1.49,0.63c-1.05,0.42-2.12,0.76-3.2,1.05c-1.83,0.49-3.7-0.47-4.48-2.11c-0.44-0.92-0.66-1.89-0.75-2.89
		c-0.17-1.79-0.14-3.57-0.04-5.37c0.07-1.25,0.02-2.5,0.15-3.74c0.09-0.87,0.16-1.74,0.23-2.61c0.03-0.44,0.05-0.87,0.04-1.31
		c-0.01-0.41-0.17-0.55-0.59-0.55c-0.34,0-0.66,0.1-0.97,0.22c-0.29,0.11-0.57,0.25-0.86,0.37c-0.27,0.11-0.56,0.17-0.85,0.1
		c-0.23-0.05-0.31-0.2-0.23-0.42c0.16-0.43,0.47-0.73,0.87-0.94c0.36-0.18,0.74-0.26,1.13-0.36c0.4-0.1,0.81-0.2,1.21-0.3
		c0.41-0.1,0.63-0.34,0.68-0.78c0.1-0.97,0.22-1.94,0.36-2.91c0.25-1.81,0.52-3.63,0.86-5.43c0.04-0.22,0.1-0.45,0.17-0.67
		c0.36-1.07,1.64-1.64,2.69-1.23c0.23,0.09,0.31,0.26,0.33,0.48c0.02,0.35,0,0.71-0.07,1.06c-0.56,2.71-0.96,5.45-1.3,8.2
		c-0.03,0.21-0.08,0.41-0.1,0.62c-0.05,0.44,0.02,0.52,0.45,0.55c0.15,0.01,0.29,0,0.44,0c1.35,0,2.71,0,4.06,0
		c0.21,0,0.42,0,0.62,0.02c0.7,0.08,0.95,0.46,0.74,1.13c-0.13,0.42-0.4,0.73-0.83,0.87c-0.28,0.09-0.57,0.13-0.86,0.14
		c-0.98,0.04-1.96-0.07-2.93-0.13c-0.46-0.03-0.89-0.21-1.31-0.4c-0.46-0.21-0.49-0.18-0.53,0.29c-0.12,1.33-0.25,2.65-0.34,3.98
		C1052.83,552.48,1052.73,553.96,1052.75,555.44z"/>
	<path class="st0" d="M1009.73,556.2c-0.01-3.4,1.17-6.37,3.43-8.88c1.4-1.55,3.11-2.63,5.19-3.07c1.77-0.38,3.41-0.01,4.91,0.91
		c1.36,0.83,2,2.43,1.64,3.82c-0.16,0.62-0.47,1.15-0.91,1.62c-0.7,0.74-1.51,1.31-2.45,1.7c-1.74,0.72-3.51,1.32-5.42,1.37
		c-0.32,0.01-0.62,0.09-0.91,0.21c-0.59,0.23-1.19,0.38-1.82,0.4c-0.48,0.01-0.61,0.15-0.57,0.61c0.14,1.52,0.37,3.02,0.95,4.44
		c0.63,1.55,1.74,2.67,3.17,3.5c0.33,0.19,0.7,0.25,1.07,0.3c1.55,0.23,2.86-0.34,4.09-1.19c0.53-0.36,1.04-0.77,1.46-1.27
		c0.16-0.19,0.35-0.36,0.58-0.46c0.18-0.08,0.37-0.12,0.53,0.03c0.15,0.15,0.05,0.32-0.02,0.46c-0.1,0.2-0.22,0.4-0.36,0.58
		c-1.14,1.45-2.51,2.61-4.26,3.26c-0.12,0.04-0.24,0.09-0.34,0.15c-1.52,0.86-3.06,0.66-4.58,0.06c-3.58-1.42-5.14-4.23-5.37-7.92
		C1009.72,556.61,1009.73,556.4,1009.73,556.2z M1014.08,553.13c0.81,0.06,1.55-0.29,2.34-0.36c0.5-0.04,0.99-0.17,1.46-0.32
		c1.04-0.33,2.04-0.75,2.8-1.57c0.79-0.85,1.04-1.87,0.61-2.94c-0.45-1.12-1.36-1.73-2.57-1.78c-1.59-0.06-2.86,0.66-3.84,1.86
		c-1.01,1.24-1.48,2.74-1.84,4.26c-0.16,0.69,0,0.85,0.72,0.85C1013.88,553.13,1013.98,553.13,1014.08,553.13z"/>
	<path class="st0" d="M994.85,546.26c-0.54-0.03-1.16,0.03-1.77,0.21c-0.25,0.07-0.54,0.18-0.73-0.11c-0.13-0.2,0.02-0.45,0.39-0.69
		c0.62-0.4,1.32-0.62,2.02-0.8c0.66-0.18,1.33-0.33,2-0.49c0.47-0.12,0.94-0.18,1.42-0.14c0.74,0.06,1.25,0.48,1.43,1.19
		c0.09,0.36,0.15,0.74,0.13,1.11c-0.09,1.75-0.2,3.49-0.4,5.23c-0.11,0.93-0.02,1.87-0.2,2.8c-0.05,0.29-0.14,0.57-0.12,0.86
		c0.01,0.08,0.02,0.17,0.12,0.2c0.09,0.02,0.15-0.04,0.2-0.11c0.13-0.22,0.18-0.46,0.25-0.7c0.56-1.87,1.14-3.74,2.06-5.49
		c0.68-1.3,1.41-2.55,2.5-3.56c0.8-0.73,1.71-1.25,2.75-1.55c1.4-0.4,2.98,0.81,3,2.27c0.01,0.66-0.14,1.28-0.44,1.86
		c-0.22,0.42-0.42,0.5-0.87,0.37c-0.36-0.11-0.71-0.24-1.06-0.36c-1.29-0.44-2.4-0.19-3.37,0.79c-0.76,0.76-1.4,1.58-1.88,2.55
		c-1.33,2.65-2.14,5.46-2.75,8.34c-0.18,0.86-0.31,1.72-0.51,2.57c-0.23,1.05-0.63,1.4-1.68,1.55c-0.29,0.04-0.58,0.09-0.87,0.08
		c-0.44-0.02-0.61-0.21-0.59-0.64c0.08-1.39,0.18-2.78,0.27-4.17c0.05-0.79,0.15-1.58,0.16-2.37c0.05-2.58,0.17-5.16,0.27-7.74
		c0.03-0.75,0.01-1.5-0.12-2.24c-0.12-0.72-0.2-0.8-0.91-0.81C995.35,546.25,995.14,546.26,994.85,546.26z"/>
	<path class="st0" d="M821.14,523.4c-0.46-0.04-0.91-0.07-1.37-0.12c-0.5-0.05-0.94,0.09-1.36,0.35c-2.24,1.35-4.64,2.35-7.13,3.15
		c-0.59,0.19-1.2,0.35-1.82,0.42c-0.5,0.06-0.96-0.04-1.34-0.37c-0.34-0.29-0.4-0.59-0.23-1c0.18-0.44,0.49-0.77,0.9-1
		c0.82-0.46,1.69-0.81,2.53-1.22c2.3-1.12,4.66-2.13,6.76-3.63c0.58-0.41,1.12-0.86,1.63-1.35c0.52-0.49,0.76-1.07,0.77-1.78
		c0.01-0.65,0.1-1.28,0.42-1.87c0.34-0.62,0.83-1.08,1.44-1.43c1-0.56,2.05-1.03,3.12-1.42c1.72-0.63,3.44-1.24,5.28-1.47
		c0.63-0.08,1.2-0.03,1.76,0.23c0.76,0.35,1.42,0.86,2.14,1.28c0.19,0.11,0.2,0.26,0.01,0.39c-0.21,0.14-0.44,0.23-0.68,0.31
		c-2.56,0.82-5.15,1.53-7.75,2.19c-0.75,0.19-1.48,0.42-2.19,0.74c-0.55,0.25-0.78,0.62-0.77,1.22c0.02,1.12,0,2.25,0.01,3.37
		c0,0.46-0.02,0.92-0.14,1.36c-0.13,0.49-0.35,0.93-0.73,1.28C822.05,523.34,821.62,523.45,821.14,523.4z"/>
	<path class="st0" d="M1067.88,563.09c0.62,0.11,1.3-0.13,1.99-0.4c0.24-0.1,0.52-0.26,0.7,0.1c0.11,0.22,0,0.41-0.37,0.62
		c-1.43,0.8-2.95,1.35-4.55,1.69c-0.04,0.01-0.08,0.02-0.12,0.02c-1.41,0.21-2.12-0.25-2.51-1.62c-0.22-0.79-0.31-1.59-0.38-2.4
		c-0.11-1.33-0.26-2.66-0.23-3.99c0.03-1.41,0.07-2.83,0.13-4.24c0.02-0.37,0.05-0.75,0.05-1.12c0.01-1.98,0.14-3.95,0.26-5.92
		c0.07-1.05,0.59-1.6,1.63-1.71c0.43-0.04,0.87,0,1.31,0c0.33,0.01,0.47,0.17,0.49,0.51c0.03,0.69-0.07,1.37-0.15,2.05
		c-0.2,1.57-0.36,3.14-0.37,4.73c-0.01,1.33-0.08,2.66-0.04,3.99c0.04,1.43-0.04,2.87-0.07,4.31c-0.02,0.63,0.07,1.25,0.14,1.87
		c0.02,0.16,0.07,0.33,0.12,0.48c0.27,0.86,0.5,1.02,1.39,1.03C1067.45,563.09,1067.59,563.09,1067.88,563.09z"/>
	<path class="st0" d="M812.81,568.25c-0.46,0-0.92,0.02-1.37-0.01c-0.43-0.02-0.52-0.2-0.31-0.57c0.15-0.25,0.34-0.48,0.53-0.7
		c1.02-1.18,1.95-2.44,3.07-3.54c0.69-0.68,1.43-1.27,2.28-1.73c1.24-0.66,2.31-1.54,3.34-2.5c0.9-0.84,1.83-1.63,2.77-2.43
		c1.25-1.07,2.38-2.27,3.55-3.43c0.74-0.74,1.54-1.4,2.45-1.92c0.12-0.07,0.24-0.21,0.39-0.11c0.17,0.12,0.11,0.29,0.06,0.46
		c-0.1,0.37-0.31,0.68-0.57,0.95c-1.89,1.95-3.89,3.76-5.96,5.51c-1.32,1.12-2.72,2.13-3.94,3.36c-0.43,0.43-0.73,0.89-0.85,1.49
		c-0.16,0.84-0.5,1.58-1.12,2.19c-0.31,0.31-0.53,0.69-0.74,1.08c-0.11,0.2-0.23,0.4-0.34,0.6c-0.52,0.93-1.3,1.37-2.37,1.3
		C813.39,568.24,813.1,568.26,812.81,568.25C812.81,568.25,812.81,568.25,812.81,568.25z"/>
	<path class="st0" d="M841.04,555.11c0.24,0.15,0.37,0.42,0.51,0.66c0.43,0.74,1.05,1.22,1.84,1.51c0.55,0.2,1.08,0.44,1.63,0.64
		c1.39,0.5,2.34,1.49,3.01,2.76c0.84,1.6,1.36,3.31,1.72,5.07c0.12,0.57,0.26,1.14,0.38,1.71c0.13,0.63-0.09,0.86-0.72,0.79
		c-0.46-0.05-0.77-0.3-0.95-0.71c-0.18-0.38-0.27-0.79-0.36-1.19c-0.15-0.67-0.38-1.32-0.58-1.98c-0.41-1.33-1.23-2.34-2.32-3.16
		c-0.58-0.44-1.18-0.85-1.8-1.24c-0.21-0.13-0.42-0.27-0.63-0.4c-1.56-0.95-2.03-2.39-1.9-4.12
		C840.88,555.32,840.87,555.19,841.04,555.11z"/>
	<path class="st0" d="M1063.15,535.72c-0.02-1.13,0.99-2.35,2.1-2.54c0.26-0.04,0.5,0.01,0.74,0.08c1.01,0.31,1.86,1.85,1.4,2.9
		c-0.32,0.72-0.72,1.35-1.43,1.75c-0.73,0.41-1.32,0.32-1.92-0.26C1063.48,537.12,1063.17,536.49,1063.15,535.72z"/>
</g>
</svg>
